<?xml version="1.0" encoding="utf-8"?>
<!-- Generator: Adobe Illustrator 18.1.0, SVG Export Plug-In . SVG Version: 6.00 Build 0)  -->
<svg version="1.1" id="Calque_1" xmlns="http://www.w3.org/2000/svg" xmlns:xlink="http://www.w3.org/1999/xlink" x="0px" y="0px"
	 viewBox="0 0 53.6 53.6" enable-background="new 0 0 53.6 53.6" xml:space="preserve">
<circle fill="#69CC6E" cx="26.8" cy="26.8" r="26.8"/>
<path fill="#5EBA63" d="M53.3,30.8c0,0-1.6,15.7-17.9,21.4L26.1,43l8.5-17.3L35,12.5L53.3,30.8z"/>
<g>
	<path fill="#FFFFFF" d="M28.1,9.7C28.1,9.7,28.1,9.8,28.1,9.7c0.6,0,1.1,0.1,1.5,0.2c0.8,0.2,1.5,0.4,2.3,0.7
		c0.8,0.4,1.6,0.8,2.3,1.3c0.6,0.4,1.1,0.9,1.6,1.5c0.6,0.7,1.1,1.4,1.5,2.1c0.4,0.7,0.7,1.4,1,2.2c0.1,0.5,0.3,1,0.4,1.6
		c0.1,0.3,0.1,0.7,0.1,1.1c0,0.5,0,1.1,0,1.6c0,0.4-0.1,0.9-0.2,1.3c-0.1,0.5-0.2,1.1-0.4,1.6c-0.1,0.5-0.3,0.9-0.5,1.3
		c-0.2,0.5-0.5,1-0.8,1.5c-0.3,0.5-0.6,1-0.9,1.5c-0.2,0.4-0.5,0.8-0.7,1.3c-0.3,0.5-0.6,1-0.8,1.4c-0.2,0.4-0.5,0.9-0.7,1.3
		c-0.3,0.5-0.5,0.9-0.8,1.4c-0.2,0.4-0.4,0.7-0.6,1.1c-0.3,0.5-0.5,0.9-0.8,1.4c-0.2,0.4-0.5,0.8-0.7,1.2c-0.4,0.7-0.9,1.5-1.3,2.2
		c-0.3,0.6-0.7,1.2-1,1.8c-0.2,0.3-0.3,0.6-0.5,0.8c-0.4,0.3-1,0.4-1.4,0.2c-0.3-0.1-0.5-0.4-0.7-0.6c-0.3-0.5-0.6-1-0.8-1.4
		c-0.3-0.5-0.5-1-0.8-1.4c-0.4-0.7-0.8-1.3-1.1-2c-0.3-0.6-0.7-1.2-1-1.8c-0.3-0.6-0.7-1.2-1-1.8c-0.3-0.6-0.6-1.1-1-1.7
		c-0.3-0.5-0.6-1.1-0.9-1.6c-0.3-0.5-0.6-1-0.8-1.5c-0.3-0.5-0.6-0.9-0.8-1.4c-0.2-0.3-0.4-0.6-0.5-1c-0.3-0.5-0.5-1-0.7-1.5
		c-0.3-0.6-0.5-1.3-0.6-1.9c-0.1-0.4-0.1-0.8-0.2-1.1c0-0.2,0-0.3,0-0.5c0-0.3,0-0.6,0-1c0-0.5,0.1-0.9,0.1-1.4
		c0.1-0.6,0.2-1.2,0.4-1.7c0.2-0.6,0.4-1.1,0.6-1.6c0.3-0.6,0.6-1.1,0.9-1.6c0.5-0.7,1-1.4,1.7-2c0.4-0.4,0.9-0.8,1.4-1.1
		c0.5-0.3,1-0.6,1.5-0.9c0.6-0.3,1.3-0.6,1.9-0.7c0.4-0.1,0.9-0.2,1.3-0.3c0.3-0.1,0.6-0.1,0.9-0.1c0,0,0,0,0.1,0
		C26.8,9.7,27.5,9.7,28.1,9.7z M21.9,22.7c0,1.1,0.6,2.5,1.4,3.3c0.9,1,2.1,1.5,3.5,1.6c1.6,0.1,2.9-0.4,4-1.5
		c0.9-0.9,1.5-2.1,1.5-3.4c0.1-1.4-0.4-2.7-1.3-3.8c-1-1.1-2.2-1.6-3.6-1.7c-1.5-0.1-2.7,0.4-3.8,1.4C22.5,19.6,21.9,20.9,21.9,22.7
		z"/>
</g>
</svg>
