<?xml version="1.0" encoding="utf-8"?>
<!-- Generator: Adobe Illustrator 18.1.0, SVG Export Plug-In . SVG Version: 6.00 Build 0)  -->
<svg version="1.1" id="Calque_1" xmlns="http://www.w3.org/2000/svg" xmlns:xlink="http://www.w3.org/1999/xlink" x="0px" y="0px"
	 viewBox="0 0 80.2 80.2" enable-background="new 0 0 80.2 80.2" xml:space="preserve">
<circle fill="#7FC0DD" cx="40" cy="40" r="40"/>
<path fill="#76AFC9" d="M79.8,36.8c2.8,16-11.3,45.7-44.7,43.2L14.6,59.5l3.9-2.2l0.3-35.4l45.5-0.7L79.8,36.8z"/>
<g>
	<g>
		<path fill="#FFFFFF" d="M35.5,42.2c-0.5,0.2-0.9,0.3-1.4,0.5c-0.6,0.2-0.9,0-1-0.6c-0.1-0.3,0-0.7,0-1c0-0.3,0.2-0.5,0.5-0.5
			c0.1,0,0.2,0,0.4,0c1.3,0,2.7,0,4,0c0.2,0,0.3,0,0.5,0.1c0.1,0,0.3,0.2,0.3,0.3c0,0.1-0.1,0.4-0.2,0.4c-0.3,0.2-0.6,0.3-0.9,0.4
			c-0.1,0-0.2,0.1-0.4,0.1c0.1,0.2,0.2,0.5,0.3,0.7c0,0.1,0.2,0.1,0.3,0.1c1.4,0,2.8,0,4.2,0c0.8,0,1.6,0,2.3,0c0.1,0,0.2,0,0.4,0
			c-0.2-0.6-0.3-1.2-0.5-1.8c-0.1-0.5-0.2-1-0.3-1.5c-0.2-0.7,0.2-1.2,1-1.2c0.6,0,1.2-0.1,1.8-0.2c0.6-0.1,1-0.4,1.4-0.9
			c0.3-0.4,0.9-0.5,1.2-0.2c0.4,0.3,0.5,0.8,0.1,1.3c-0.6,0.8-1.4,1.3-2.4,1.5c-0.4,0.1-0.8,0.2-1.3,0.2c0.1,0.6,0.3,1.1,0.4,1.7
			c0.8,2.9,1.8,5.8,3.2,8.5c0.4,0.8,0.9,1.5,1.3,2.3c0.3,0.5,0.1,1.1-0.4,1.3c-0.4,0.2-0.8,0-1.1-0.4c-0.5-0.8-1-1.6-1.4-2.4
			c-0.6-1.3-1.2-2.7-1.8-4c0-0.1-0.1-0.1-0.1-0.2c-0.1,0.1-0.2,0.2-0.2,0.3c-1.5,2.1-2.9,4.3-4.4,6.4c-0.2,0.3-0.5,0.4-0.8,0.4
			c-2.7,0-5.3,0-8,0c-0.9,0-1.3-0.7-0.9-1.5c1.4-2.9,2.8-5.7,4.2-8.6c0.1-0.2,0.1-0.4,0-0.6C35.7,42.8,35.6,42.5,35.5,42.2z
			 M38.2,44.3c0.9,2.2,1.7,4.4,2.6,6.7c0.1-0.1,0.1-0.2,0.1-0.2c1.4-2.1,2.8-4.1,4.2-6.2c0.1-0.1,0.1-0.2,0.1-0.3
			c0-0.1-0.2-0.1-0.3-0.1c-2.2,0-4.4,0-6.5,0C38.4,44.3,38.3,44.3,38.2,44.3z M36.8,45.6c-1,2.1-2.1,4.2-3.1,6.3c1.9,0,3.7,0,5.6,0
			C38.5,49.8,37.7,47.7,36.8,45.6z"/>
		<path fill="#FFFFFF" d="M49.1,46.7c2.1-0.5,5.3,0.6,6.6,3.7c1.3,2.9,0.1,6.3-2.7,7.9c-2.7,1.6-6.2,0.8-8.1-1.8
			c-1.8-2.5-1.4-5.9,0.6-8c0.2,0.5,0.5,1.1,0.7,1.6c0.2,0.3,0.2,0.6,0,1c-1.3,2.5,0.4,5.6,3.2,5.9c2.6,0.3,4.9-1.7,4.8-4.3
			c-0.1-2.2-1.8-3.9-3.9-4c-0.2,0-0.3-0.1-0.4-0.3C49.7,47.8,49.4,47.3,49.1,46.7z"/>
		<path fill="#FFFFFF" d="M38.2,54.8c-0.8,2.6-3.7,4.8-7.2,4.1c-3.4-0.7-5.5-4.1-4.8-7.4c0.8-3.6,4.3-5.3,6.8-4.8
			c-0.3,0.6-0.6,1.3-0.9,1.9c0,0.1-0.1,0.1-0.2,0.1c-2.1,0.2-3.6,1.7-3.8,3.8c-0.2,2.1,1.4,4.3,3.6,4.5c1.8,0.2,3.2-0.4,4.2-1.9
			c0.1-0.1,0.2-0.2,0.3-0.2C36.8,54.8,37.5,54.8,38.2,54.8z"/>
		<path fill="#FFFFFF" d="M38.2,50.8c-0.3-0.9-0.8-1.7-1.5-2.4c-0.3,0.6-0.6,1.2-0.9,1.8c-0.1,0.2,0.1,0.6,0.3,0.6
			C36.8,50.8,37.5,50.8,38.2,50.8z"/>
		<path fill="#FFFFFF" d="M38.2,50.8c-0.7,0-1.4,0-2.1,0c-0.2,0-0.4-0.4-0.3-0.6c0.3-0.6,0.6-1.2,0.9-1.8
			C37.4,49.1,37.9,49.9,38.2,50.8z"/>
	</g>
	<g>
		<path fill="#FFFFFF" d="M14.6,35.8c1.1,0,2.2,0,3.4,0c0-4.9,0-9.8,0-14.6c0.4,0,44.1,0,46.2,0c0,4.9,0,9.7,0,14.6
			c1.2,0,2.4,0,3.5,0c0,0.8,0,1.7,0,2.5c-1.1,0-2.2,0.1-3.4,0.1c0,0.1,0,0.2,0,0.3c1.1,0,2.2,0,3.4,0c0,0.9,0,1.8,0,2.7
			c-1.1,0-2.2,0-3.4,0c0,0.1,0,0.3,0,0.4c1.1,0,2.2,0,3.4,0c0,0.8,0,1.7,0,2.5c-1.1,0-2.2,0-3.4,0c0,0.1,0,0.3,0,0.4
			c1.1,0,2.2,0,3.4,0c0,0.9,0,1.8,0,2.7c-1.1,0-2.2,0-3.4,0c0,0.1,0,0.3,0,0.4c1.1,0,2.2,0,3.4,0c0,0.8,0,1.7,0,2.5
			c-1.1,0-2.2,0.1-3.4,0.1c0,0.1,0,0.2,0,0.3c1.1,0,2.2,0,3.4,0c0,0.9,0,1.8,0,2.7c-1.1,0-2.2,0-3.4,0c0,0.1,0,0.3,0,0.4
			c1.1,0,2.2,0,3.3,0c0,0.8,0,1.7,0,2.5c-1.1,0-2.3,0.1-3.4,0.1c0,0.1,0,0.2,0,0.3c1.1,0,2.2,0,3.4,0c0,0.9,0,1.8,0,2.7
			c-2.7,0-5.4,0-8.1,0c0-1,0-1.8,0-2.7c1.1,0,2.2,0,3.3,0c0-0.1,0-0.2,0-0.3c-1.1,0-2.2,0-3.3,0c0-1,0-1.7,0-2.7c1.1,0,2.2,0,3.3,0
			c0-0.1,0-0.2,0-0.4c-1.1,0-2.2,0-3.3,0c0-1,0-1.8,0-2.7c1.2,0,2.2,0,3.3,0c0-0.1,0-0.2,0-0.3c-1.1,0-2.2,0-3.3,0c0-1,0-1.7,0-2.7
			c1.1,0,2.2,0,3.3,0c0-0.1,0-0.2,0-0.3c-1.1,0-2.1,0-3.3,0c0-0.9,0-1.7,0-2.7c1.1,0,2.2,0,3.3,0c0-0.1,0-0.2,0-0.3
			c-1.1,0-2.2,0-3.3,0c0-1,0-1.7,0-2.7c1.1,0,2.2,0,3.3,0c0-0.1,0-0.2,0-0.3c-1.1,0-2.1,0-3.3,0c0-0.9,0-1.7,0-2.7
			c1.1,0,2.2,0,3.3,0c0-0.1,0-0.2,0-0.3c-1.1,0-2.1,0-3.3,0c0-1,0-1.8,0-2.7c1.1,0,2.2,0,3.3,0c0-4.5,0-8.8,0-13.3
			c-1.8,0-41.7,0-43.5,0c0,4.5,0,8.8,0,13.3c1.1,0,2.2,0,3.3,0c0,0.9,0,1.7,0,2.6c-1.1,0-2.2,0-3.3,0c0,0.1,0,0.2,0,0.3
			c1.1,0,2.1,0,3.3,0c0,0.9,0,1.7,0,2.7c-1.1,0-2.2,0-3.3,0c0,0.1,0,0.2,0,0.3c1.1,0,2.2,0,3.3,0c0,0.9,0,1.7,0,2.6
			c-1.1,0-2.2,0-3.3,0c0,0.1,0,0.2,0,0.3c1.1,0,2.2,0,3.3,0c0,1,0,1.8,0,2.7c-1.1,0-2.2,0-3.3,0c0,0.1,0,0.2,0,0.3
			c1.1,0,2.2,0,3.3,0c0,1,0,1.8,0,2.7c-1.1,0-2.2,0-3.3,0c0,0.1,0,0.2,0,0.3c1.1,0,2.2,0,3.3,0c0,1,0,1.8,0,2.7c-1.1,0-2.2,0-3.3,0
			c0,0.1,0,0.2,0,0.3c1.1,0,2.2,0,3.3,0c0,1,0,1.7,0,2.7c-1.1,0-2.2,0-3.3,0c0,0.1,0,0.2,0,0.3c1.1,0,2.2,0,3.3,0c0,0.9,0,1.7,0,2.7
			c-2.7,0-5.4,0-8.2,0c0-0.9,0-1.8,0-2.7c1.1,0,2.3,0,3.4,0c0-0.1,0-0.3,0-0.4c-1.1,0-2.3,0-3.4,0c0-0.8,0-1.7,0-2.5
			c1.1,0,2.2-0.1,3.4-0.1c0-0.1,0-0.2,0-0.3c-1.1,0-2.2,0-3.4,0c0-0.9,0-1.8,0-2.7c1.1,0,2.2,0,3.4,0c0-0.1,0-0.3,0-0.4
			c-1.1,0-2.2,0-3.4,0c0-0.8,0-1.7,0-2.5c1.1,0,2.2,0,3.4,0c0-0.1,0-0.3,0-0.4c-1.1,0-2.2,0-3.4,0c0-0.9,0-1.8,0-2.7
			c1.1,0,2.2,0,3.4,0c0-0.1,0-0.3,0-0.4c-1.1,0-2.2,0-3.4,0c0-0.8,0-1.7,0-2.5c1.1,0,2.2-0.1,3.4-0.1c0-0.1,0-0.2,0-0.3
			c-1.1,0-2.2,0-3.4,0c0-0.9,0-1.8,0-2.7c1.1,0,2.2,0,3.4,0c0-0.1,0-0.3,0-0.4c-1.1,0-2.2,0-3.3,0C14.6,37.5,14.6,36.6,14.6,35.8z"
			/>
		<path fill="#FFFFFF" d="M41.3,26.7c0.5,1.1,1,2.2,1.4,3.4c0.3,0.7,0.1,1.6-0.7,1.9c-0.6,0.2-1.3,0.2-1.9,0
			c-0.7-0.3-0.9-1.1-0.6-1.9c0.4-1.1,1-2.2,1.4-3.4C41.1,26.7,41.2,26.7,41.3,26.7z"/>
		<path fill="#FFFFFF" d="M36.1,23.8c0.5,1.2,1,2.3,1.5,3.5c0.3,0.7,0,1.5-0.7,1.8c-0.6,0.2-1.3,0.2-1.9,0c-0.7-0.3-1-1-0.7-1.7
			c0.4-1.2,1-2.3,1.4-3.5C35.8,23.8,36,23.8,36.1,23.8z"/>
		<path fill="#FFFFFF" d="M46.6,23.8c0.5,1.2,1,2.3,1.5,3.5c0.3,0.8,0,1.5-0.7,1.8c-0.6,0.2-1.3,0.2-1.9-0.1c-0.7-0.3-0.9-1-0.6-1.8
			c0.5-1.2,1-2.3,1.5-3.5C46.4,23.7,46.5,23.7,46.6,23.8z"/>
	</g>
</g>
<rect x="14.6" y="35.8" fill="#FFFFFF" width="8.2" height="23.7"/>
<rect x="59.6" y="35.8" fill="#FFFFFF" width="8.1" height="23.7"/>
</svg>
