<?xml version="1.0" encoding="utf-8"?>
<!-- Generator: Adobe Illustrator 18.1.0, SVG Export Plug-In . SVG Version: 6.00 Build 0)  -->
<svg version="1.1" id="Calque_1" xmlns="http://www.w3.org/2000/svg" xmlns:xlink="http://www.w3.org/1999/xlink" x="0px" y="0px"
	 viewBox="65 306.7 670 600" enable-background="new 65 306.7 670 600" xml:space="preserve">
<g id="camera-alt">
	<circle fill="#FFFFFF" cx="400" cy="640" r="106.7"/>
	<path fill="#FFFFFF" d="M300,306.7l-60,66.7H133.3c-36.7,0-66.7,30-66.7,66.7v400c0,36.7,30,66.7,66.7,66.7h533.3
		c36.7,0,66.7-30,66.7-66.7V440c0-36.7-30-66.7-66.7-66.7H560l-60-66.7H300z M400,806.7c-93.3,0-166.7-73.3-166.7-166.7
		S306.7,473.3,400,473.3S566.7,546.7,566.7,640S493.3,806.7,400,806.7z"/>
</g>
</svg>
