<?xml version="1.0" encoding="utf-8"?>
<!-- Generator: Adobe Illustrator 18.1.0, SVG Export Plug-In . SVG Version: 6.00 Build 0)  -->
<svg version="1.1" id="Calque_1" xmlns="http://www.w3.org/2000/svg" xmlns:xlink="http://www.w3.org/1999/xlink" x="0px" y="0px"
	 viewBox="0 0 80.2 80.2" enable-background="new 0 0 80.2 80.2" xml:space="preserve">
<circle fill="#B7A9A9" cx="40.1" cy="40.1" r="40.1"/>
<path fill="#A79A9A" d="M78.8,50.6c-4.1,18.5-27,35.6-50.8,27.7L8.3,59.7l33.1-46.5L78.8,50.6z"/>
<g>
	<path fill="none" stroke="#FFFFFF" stroke-width="3" stroke-miterlimit="10" d="M29.5,35.1c1.4,1.1,5.2-2.7,6.6-3.2
		c1.7-0.7,2.1-0.8,3.4,0.7c0.4,0.5,1.9,0.4,2.3,0c0.3-0.3,0.7-0.5,1-0.8c0.7-0.7,1.7-1.3,2.3-0.5c1.7,2.2,7.4,2.6,7.4,2.5"/>
</g>
<text transform="matrix(1 0 0 1 29.8506 54.4379)" fill="#FFFFFF" font-family="'MyriadPro-Regular'" font-size="16.0393">D+</text>
<g>
	<path fill="#FFFFFF" d="M41.4,18.9l26,37.7H14.3L41.4,18.9 M41.5,13.2L39,16.6L11.9,54.6l-3.4,5h5.9h53.2h5.7l-3.2-5l-26-37.8
		L41.5,13.2L41.5,13.2z"/>
</g>
</svg>
