<?xml version="1.0" encoding="utf-8"?>
<!-- Generator: Adobe Illustrator 18.1.0, SVG Export Plug-In . SVG Version: 6.00 Build 0)  -->
<svg version="1.1" id="Calque_1" xmlns="http://www.w3.org/2000/svg" xmlns:xlink="http://www.w3.org/1999/xlink" x="0px" y="0px"
	 viewBox="0 0 80.2 80.2" enable-background="new 0 0 80.2 80.2" xml:space="preserve">
<circle fill="#F9B4DC" cx="40.1" cy="40.1" r="40.1"/>
<path fill="#E0A4C3" d="M77.4,55.2c0,0-10.8,27.3-41.1,24.8L18.8,62.4l4-43.7l10.3,1.4l9.8,0.6L77.4,55.2z"/>
<g>
	<path fill="#FFFFFF" d="M18.8,42.8c0-6.1,0-12.2,0-18.3c0-3.8,1.8-6.7,5.3-8.3c3.2-1.5,7.1-0.8,9.7,1.6c0.4,0.4,0.8,0.6,1.3,0.7
		c2.4,0.6,4.8,1.3,7.3,1.9c0.8,0.2,1.3,1.1,0.9,1.9c-0.1,0.3-0.4,0.5-0.7,0.7c-3.2,1.9-6.4,3.7-9.6,5.5c-0.8,0.5-1.7,1-2.5,1.5
		c-0.5,0.3-1.1,0.3-1.6,0c-0.5-0.4-0.7-0.9-0.5-1.6c0.7-2.6,1.4-5.1,2.1-7.7c0.1-0.2,0-0.4-0.2-0.5c-1.6-0.9-3.3-1-4.9-0.1
		c-1.6,0.9-2.5,2.3-2.5,4.2c0,12.3,0,24.7,0,37c0,0.7-0.1,1.3-0.7,1.7c-0.6,0.6-1.4,0.7-2.2,0.4c-0.8-0.3-1.2-0.9-1.3-1.8
		c0-0.1,0-0.3,0-0.4C18.8,55.1,18.8,49,18.8,42.8z"/>
</g>
<line fill="none" stroke="#FFFFFF" stroke-miterlimit="10" x1="42.1" y1="25.7" x2="56" y2="40.1"/>
<line fill="none" stroke="#FFFFFF" stroke-miterlimit="10" x1="38.1" y1="27.7" x2="48.5" y2="45.5"/>
<line fill="none" stroke="#FFFFFF" stroke-miterlimit="10" x1="34.9" y1="30" x2="40.1" y2="49.6"/>
</svg>
