<?xml version="1.0" encoding="utf-8"?>
<!-- Generator: Adobe Illustrator 18.1.0, SVG Export Plug-In . SVG Version: 6.00 Build 0)  -->
<svg version="1.1" id="Calque_1" xmlns="http://www.w3.org/2000/svg" xmlns:xlink="http://www.w3.org/1999/xlink" x="0px" y="0px"
	 viewBox="0 0 80.2 80.2" enable-background="new 0 0 80.2 80.2" xml:space="preserve">
<circle fill="#9369C9" cx="40.1" cy="40.1" r="40.1"/>
<path fill="#8363A7" d="M79.9,44.8c-0.7,6.8-4.8,14.7-4.8,14.7L33.4,16l12.8-3.3L79.9,44.8z"/>
<path fill="#8363A7" d="M79.3,48.8c0,0-5.1,28.1-36.3,31.3L21.9,58.7l-4-17.3l6-13.2l22.9-12L79.3,48.8z"/>
<rect x="52.7" y="22.3" transform="matrix(0.7355 0.6775 -0.6775 0.7355 30.5436 -31.6435)" fill="#FFFFFF" width="6.2" height="2"/>
<line fill="none" stroke="#FFFFFF" stroke-width="2" stroke-miterlimit="10" x1="39.6" y1="43.1" x2="39.9" y2="28.6"/>
<rect x="33.4" y="12.7" fill="#FFFFFF" width="12.8" height="3.3"/>
<g>
	<path fill="#FFFFFF" d="M39.6,23.5c10.9,0,19.7,8.8,19.7,19.7s-8.8,19.7-19.7,19.7S20,54,20,43.1S28.8,23.5,39.6,23.5 M39.6,20.5
		C27.1,20.5,17,30.6,17,43.1s10.2,22.7,22.7,22.7s22.7-10.2,22.7-22.7S52.1,20.5,39.6,20.5L39.6,20.5z"/>
</g>
</svg>
