<?xml version="1.0" encoding="utf-8"?>
<!-- Generator: Adobe Illustrator 18.1.0, SVG Export Plug-In . SVG Version: 6.00 Build 0)  -->
<svg version="1.1" id="Calque_1" xmlns="http://www.w3.org/2000/svg" xmlns:xlink="http://www.w3.org/1999/xlink" x="0px" y="0px"
	 viewBox="243 0 794.1 800" enable-background="new 243 0 794.1 800" xml:space="preserve">
<g>
	<circle fill="#FFFFFF" cx="639.9" cy="399.9" r="397.7"/>
</g>
<g>
	<polygon fill="#0EA6AD" points="405.4,375.9 458.2,284.3 511.1,375.9 	"/>
	<polygon fill="#0097A7" points="458.2,284.3 405.4,375.9 352.4,284.3 	"/>
	<polygon fill="#40C1BA" points="458.2,467.4 511.1,375.9 564.1,467.4 	"/>
	<polygon fill="#20B7B7" points="511.1,375.9 458.2,467.4 405.4,375.9 	"/>
	<polygon fill="#0EA6AD" points="587.3,375.9 640.1,284.3 693.2,375.9 	"/>
	<polygon fill="#40C1BA" points="640.1,467.4 693.2,375.9 746,467.4 	"/>
	<polygon fill="#20B7B7" points="693.2,375.9 640.1,467.4 587.3,375.9 	"/>
	<polygon fill="#7FDDD2" points="693.2,559 746,467.4 798.8,559 	"/>
	<polygon fill="#52CCC3" points="746,467.4 693.2,559 640.1,467.4 	"/>
	<polygon fill="#7FDDD2" points="511.1,559 564.1,467.4 616.9,559 	"/>
	<polygon fill="#52CCC3" points="564.1,467.4 511.1,559 458.2,467.4 	"/>
	<polygon fill="#0EA6AD" points="874.6,376.1 821.8,284.5 768.9,376.1 	"/>
	<polygon fill="#0097A7" points="821.8,284.5 874.6,376.1 927.4,284.5 	"/>
	<polygon fill="#20B7B7" points="768.9,376.1 821.8,467.7 874.6,376.1 	"/>
</g>
</svg>
