<?xml version="1.0" encoding="utf-8"?>
<!-- Generator: Adobe Illustrator 18.1.0, SVG Export Plug-In . SVG Version: 6.00 Build 0)  -->
<svg version="1.1" id="Calque_1" xmlns="http://www.w3.org/2000/svg" xmlns:xlink="http://www.w3.org/1999/xlink" x="0px" y="0px"
	 viewBox="0 0 369.5 369.5" enable-background="new 0 0 369.5 369.5" xml:space="preserve">
<circle fill="none" stroke="#FFFFFF" stroke-width="4" stroke-miterlimit="10" cx="184.7" cy="184.7" r="183.7"/>
<g>
	<polygon fill="#0EA6AD" points="76.4,173.6 100.8,131.3 125.2,173.6 	"/>
	<polygon fill="#0097A7" points="100.8,131.3 76.4,173.6 51.9,131.3 	"/>
	<polygon fill="#40C1BA" points="100.8,215.9 125.2,173.6 149.7,215.9 	"/>
	<polygon fill="#20B7B7" points="125.2,173.6 100.8,215.9 76.4,173.6 	"/>
	<polygon fill="#0EA6AD" points="160.4,173.6 184.8,131.3 209.3,173.6 	"/>
	<polygon fill="#40C1BA" points="184.8,215.9 209.3,173.6 233.7,215.9 	"/>
	<polygon fill="#20B7B7" points="209.3,173.6 184.8,215.9 160.4,173.6 	"/>
	<polygon fill="#7FDDD2" points="209.3,258.2 233.7,215.9 258.1,258.2 	"/>
	<polygon fill="#52CCC3" points="233.7,215.9 209.3,258.2 184.8,215.9 	"/>
	<polygon fill="#7FDDD2" points="125.2,258.2 149.7,215.9 174.1,258.2 	"/>
	<polygon fill="#52CCC3" points="149.7,215.9 125.2,258.2 100.8,215.9 	"/>
	<polygon fill="#0EA6AD" points="293.1,173.7 268.7,131.4 244.3,173.7 	"/>
	<polygon fill="#0097A7" points="268.7,131.4 293.1,173.7 317.5,131.4 	"/>
	<polygon fill="#20B7B7" points="244.3,173.7 268.7,216 293.1,173.7 	"/>
</g>
</svg>
