<?xml version="1.0" encoding="utf-8"?>
<!-- Generator: Adobe Illustrator 18.1.0, SVG Export Plug-In . SVG Version: 6.00 Build 0)  -->
<svg version="1.1" id="Calque_1" xmlns="http://www.w3.org/2000/svg" xmlns:xlink="http://www.w3.org/1999/xlink" x="0px" y="0px"
	 viewBox="0 0 80.3 80.2" enable-background="new 0 0 80.3 80.2" xml:space="preserve">
<circle fill="#ABD169" cx="40.1" cy="40.1" r="40.1"/>
<path fill="#99BE5E" d="M63.2,17.3l16.5,16.5c2.7,12.3-2.9,41.5-36.2,46.2L27.1,63.6L16.7,50.4L42.1,24l3.4-0.6l2.3-4.4l5.1-2.4
	l4.6,2.4L63.2,17.3z"/>
<g>
	<path fill="none" stroke="#FFFFFF" stroke-width="3" stroke-miterlimit="10" d="M62.6,18.3c0.1,0.1,0.1,0.2,0.1,0.3
		c-0.1,0.1-0.2,0.2-0.2,0.2s0.5,0.5,0.9,0.9c0.4,0.4-0.4,1.3-0.8,0.8c0,0-1.1,1.2-1.4,1.4c-0.2,0.2-0.4,0.2-0.1,0.9
		c0.4,0.6,1.8,2.9,2.1,3.2c0.2,0.3,0.6,1.2,0.3,2.1c-0.1,0.3-1.5,4.1-3.4,5.6c-1.1,0.9-1.5,0.6-1.8,0.6c-0.3,0-2.1,0-2.1,2
		c-0.1,1.6-0.5,2.8-2.8,5.1C52,42.8,32.5,62.3,32.5,62.3c-0.9,0.9-3.5,1.8-4.2,1c-0.7-0.7-10.7-10.7-11.4-11.4
		c-0.7-0.7,0.2-3.4,1-4.2c0,0,19.5-19.5,20.9-20.9c2.3-2.3,3.5-2.7,5.1-2.8c2,0,2-1.8,2-2.1c0-0.3-0.3-0.7,0.6-1.8
		c1.5-1.8,5.3-3.2,5.6-3.4c0.9-0.3,1.8,0,2.1,0.3c0.3,0.2,2.6,1.7,3.2,2.1c0.6,0.4,0.7,0.1,0.9-0.1c0.2-0.2,1.4-1.4,1.4-1.4
		c-0.5-0.5,0.4-1.3,0.8-0.8c0.4,0.4,0.9,0.9,0.9,0.9s0.1-0.1,0.2-0.2c0.1-0.1,0.1-0.1,0.3,0.1C62.1,17.8,62.4,18.1,62.6,18.3z"/>
</g>
</svg>
