<?xml version="1.0" encoding="utf-8"?>
<!-- Generator: Adobe Illustrator 18.1.0, SVG Export Plug-In . SVG Version: 6.00 Build 0)  -->
<svg version="1.1" id="Calque_1" xmlns="http://www.w3.org/2000/svg" xmlns:xlink="http://www.w3.org/1999/xlink" x="0px" y="0px"
	 viewBox="0 0 1280 720" enable-background="new 0 0 1280 720" xml:space="preserve">
<g id="search">
	<path fill="#00707C" d="M745,420h-24l-9-9c30-33,48-78,48-126c0-108-87-195-195-195s-195,87-195,195s87,195,195,195
		c48,0,93-18,126-48l9,9v24l150,150l45-45L745,420z M565,420c-75,0-135-60-135-135s60-135,135-135s135,60,135,135S640,420,565,420z"
		/>
</g>
</svg>
